<?xml version="1.0" encoding="UTF-8"?>
<svg version="1.1" xmlns="http://www.w3.org/2000/svg" width="581" height="573">
<path d="M0 0 C2.8105251 0.00916537 5.62021736 0.00230545 8.43066406 -0.02050781 C60.65326869 -0.44184247 113.76922953 14.79713 156.54125977 45.44604492 C157.25137207 45.95006836 157.96148437 46.4540918 158.69311523 46.97338867 C168.91936126 54.25472808 178.46366529 61.77849755 187.54125977 70.44604492 C188.97090392 71.70502222 190.40759369 72.95608124 191.85375977 74.19604492 C216.54290938 95.67152424 235.72866491 125.02075306 249.54125977 154.44604492 C249.86690918 155.12538086 250.19255859 155.8047168 250.52807617 156.50463867 C259.93744032 176.21337996 266.51355534 196.99125758 270.54125977 218.44604492 C270.80092529 219.69409912 271.06059082 220.94215332 271.328125 222.22802734 C274.06730829 236.36219692 274.03626607 250.56605923 273.98730469 264.90478516 C273.97813931 267.71531026 273.98499924 270.52500251 274.0078125 273.33544922 C274.1506564 291.0373404 273.28921901 308.07834538 269.54125977 325.44604492 C269.32190765 326.46260162 269.10255554 327.47915833 268.8765564 328.52651978 C258.99375337 373.60769558 237.31524241 416.07969876 205.85375977 449.94995117 C203.80468057 452.16171064 201.81926495 454.41026769 199.85375977 456.69604492 C178.26352285 481.464284 149.05131769 500.48429709 119.54125977 514.44604492 C118.84162109 514.77991211 118.14198242 515.1137793 117.42114258 515.45776367 C101.46377663 523.01308796 85.06021737 528.50532903 67.91625977 532.69604492 C66.48914673 533.04723389 66.48914673 533.04723389 65.03320312 533.40551758 C61.8791288 534.14481585 58.71692494 534.8056974 55.54125977 535.44604492 C53.61624634 535.85318726 53.61624634 535.85318726 51.65234375 536.26855469 C37.56471527 539.00684609 23.37512522 538.94083501 9.08251953 538.89208984 C6.27199443 538.88292447 3.46230217 538.88978439 0.65185547 538.91259766 C-51.57074916 539.33393232 -104.68671 524.09495984 -147.45874023 493.44604492 C-148.16885254 492.94202148 -148.87896484 492.43799805 -149.6105957 491.91870117 C-159.83684173 484.63736176 -169.38114576 477.1135923 -178.45874023 468.44604492 C-179.88838439 467.18706763 -181.32507416 465.93600861 -182.77124023 464.69604492 C-207.46038985 443.22056561 -226.64614538 413.87133678 -240.45874023 384.44604492 C-240.94721436 383.42704102 -240.94721436 383.42704102 -241.44555664 382.38745117 C-250.85492079 362.67870988 -257.43103581 341.90083226 -261.45874023 320.44604492 C-261.84823853 318.57396362 -261.84823853 318.57396362 -262.24560547 316.6640625 C-264.98478876 302.52989293 -264.95374654 288.32603061 -264.90478516 273.98730469 C-264.89561978 271.17677958 -264.90247971 268.36708733 -264.92529297 265.55664062 C-265.06813687 247.85474945 -264.20669948 230.81374446 -260.45874023 213.44604492 C-260.23938812 212.42948822 -260.02003601 211.41293152 -259.79403687 210.36557007 C-249.91123384 165.28439427 -228.23272288 122.81239108 -196.77124023 88.94213867 C-194.72216104 86.73037921 -192.73674542 84.48182216 -190.77124023 82.19604492 C-169.18100332 57.42780584 -139.96879816 38.40779276 -110.45874023 24.44604492 C-109.75910156 24.11217773 -109.05946289 23.77831055 -108.33862305 23.43432617 C-92.3812571 15.87900189 -75.97769784 10.38676081 -58.83374023 6.19604492 C-57.88233154 5.96191895 -56.93092285 5.72779297 -55.95068359 5.48657227 C-52.79660927 4.74727399 -49.6344054 4.08639244 -46.45874023 3.44604492 C-45.17539795 3.1746167 -43.89205566 2.90318848 -42.56982422 2.62353516 C-28.48219574 -0.11475624 -14.29260568 -0.04874517 0 0 Z " fill="#FEDD13" transform="translate(285.458740234375,12.553955078125)"/>
<path d="M0 0 C4.29068936 0.02533045 8.58139496 0.02738019 12.87214756 0.03210163 C20.9641359 0.04443986 29.05590315 0.07713483 37.14779496 0.11749959 C46.37417031 0.16250567 55.60055728 0.18427618 64.8270154 0.20428133 C83.77583869 0.24587776 102.72445741 0.31604781 121.67311192 0.40557575 C121.67311192 2.38557575 121.67311192 4.36557575 121.67311192 6.40557575 C121.01311192 6.40557575 120.35311192 6.40557575 119.67311192 6.40557575 C119.71951817 7.2254195 119.76592442 8.04526325 119.81373692 8.88995075 C119.6453881 13.09867125 118.63422387 16.64510882 117.42311192 20.65557575 C115.32896467 27.84958746 113.55244026 35.05751714 112.01783848 42.39092731 C111.14403522 46.51353487 110.00847924 50.41410028 108.67311192 54.40557575 C108.10529612 56.39855627 107.55368385 58.39621177 107.01686192 60.39776325 C106.71651035 61.51538044 106.41615879 62.63299763 106.10670567 63.784482 C105.79861973 64.93819294 105.49053379 66.09190388 105.17311192 67.28057575 C104.86502598 68.42655231 104.55694004 69.57252888 104.23951817 70.753232 C102.66467122 76.6268028 101.14825604 82.50499926 99.67311192 88.40557575 C56.11311192 88.73557575 12.55311192 89.06557575 -32.32688808 89.40557575 C-34.30688808 98.31557575 -36.28688808 107.22557575 -38.32688808 116.40557575 C-39.36063984 120.94948902 -40.39670044 125.49176531 -41.45188808 130.03057575 C-41.82615932 131.64766438 -41.82615932 131.64766438 -42.2079916 133.29742146 C-43.6938931 139.70912246 -45.19956612 146.11582861 -46.7223959 152.518857 C-47.82325724 157.18028199 -48.8762296 161.85139471 -49.91673183 166.5266695 C-52.85529383 179.71843695 -55.8340678 192.87590696 -59.3732748 205.92364216 C-60.70175321 210.84660625 -61.83147328 215.75781329 -62.79734707 220.76421833 C-63.81042297 225.81745399 -65.02520937 230.82592117 -66.20188808 235.84307575 C-68.72299534 246.66882483 -71.0965851 257.51644942 -73.32688808 268.40557575 C-70.17172229 269.4735462 -67.04584724 270.48085455 -63.82688808 271.34307575 C-60.32688808 272.40557575 -60.32688808 272.40557575 -57.38938808 273.96807575 C-53.59103369 275.7509768 -50.49273601 276.04645093 -46.32688808 276.40557575 C-46.32688808 277.06557575 -46.32688808 277.72557575 -46.32688808 278.40557575 C-45.19638027 278.53190388 -44.06587246 278.658232 -42.90110683 278.78838825 C-38.25483112 279.36955506 -33.71726789 280.30995514 -29.13938808 281.28057575 C-18.59683554 283.4611037 -7.9957033 284.99163639 2.67311192 286.40557575 C2.67311192 286.73557575 2.67311192 287.06557575 2.67311192 287.40557575 C-4.92754897 287.62152459 -12.09087372 287.08480525 -19.57688808 285.78057575 C-20.60974941 285.60308796 -21.64261074 285.42560017 -22.7067709 285.24273396 C-60.06864352 278.55313096 -97.35378546 264.59979899 -128.32688808 242.40557575 C-129.03700039 241.90155231 -129.74711269 241.39752888 -130.47874355 240.878232 C-140.70498958 233.59689259 -150.24929361 226.07312313 -159.32688808 217.40557575 C-160.75653224 216.14659846 -162.19322201 214.89553944 -163.63938808 213.65557575 C-188.3285377 192.18009644 -207.51429323 162.83086761 -221.32688808 133.40557575 C-221.6525375 132.72623981 -221.97818691 132.04690388 -222.31370449 131.346982 C-231.74403912 111.5943162 -238.15624721 90.86901922 -242.32688808 69.40557575 C-242.49059902 68.5768697 -242.65430996 67.74816364 -242.82298183 66.89434528 C-245.05306914 55.31770407 -245.70675208 44.18135956 -245.32688808 32.40557575 C-244.99688808 32.40557575 -244.66688808 32.40557575 -244.32688808 32.40557575 C-244.28442959 33.23637653 -244.24197109 34.06717731 -244.19822598 34.92315388 C-243.64912128 44.05924026 -242.37625254 52.89358287 -240.76438808 61.90557575 C-240.29867595 64.5191816 -239.84041545 67.13378906 -239.38548183 69.74932575 C-239.18237392 70.88563435 -238.97926601 72.02194294 -238.77000332 73.19268513 C-238.33995325 76.31084433 -238.24641658 79.26273312 -238.32688808 82.40557575 C-237.66688808 82.40557575 -237.00688808 82.40557575 -236.32688808 82.40557575 C-235.96337246 83.92924763 -235.96337246 83.92924763 -235.59251308 85.48370075 C-230.95723647 104.65720979 -224.71481515 124.32768478 -214.42063808 141.284482 C-213.20235834 143.6470745 -212.73153829 145.7891443 -212.32688808 148.40557575 C-211.66688808 148.40557575 -211.00688808 148.40557575 -210.32688808 148.40557575 C-210.32688808 149.72557575 -210.32688808 151.04557575 -210.32688808 152.40557575 C-209.66688808 152.40557575 -209.00688808 152.40557575 -208.32688808 152.40557575 C-207.21240905 154.1315122 -206.18696776 155.91515086 -205.20188808 157.71807575 C-201.1455036 164.88237903 -196.49748967 171.47029967 -191.33470058 177.878232 C-188.55317012 181.37949701 -186.00411447 185.03542628 -183.42454433 188.68682575 C-181.24251026 191.51493696 -178.87803713 193.90805447 -176.32688808 196.40557575 C-173.90769289 199.00545948 -171.53913411 201.65187501 -169.16868496 204.29620075 C-166.56802732 207.24932314 -166.56802732 207.24932314 -163.32688808 209.40557575 C-163.1973373 208.57340534 -163.1973373 208.57340534 -163.06516933 207.72442341 C-161.36455126 197.62017772 -158.78803411 187.71968467 -156.32688808 177.78057575 C-155.64663852 175.02280726 -154.96734997 172.26480616 -154.28904629 169.50655842 C-153.86961925 167.80211395 -153.44897153 166.09796919 -153.02683926 164.3941927 C-151.71582753 159.08065342 -150.49295901 153.75270981 -149.32688808 148.40557575 C-149.11097012 147.4229073 -148.89505215 146.44023884 -148.67259121 145.42779255 C-148.48632168 144.57870319 -148.30005215 143.72961384 -148.10813808 142.8547945 C-147.68133048 140.93416029 -147.25424415 139.013588 -146.82688808 137.09307575 C-146.61419277 136.11789997 -146.40149746 135.14272419 -146.18235683 134.13799763 C-145.86718105 132.72937458 -145.86718105 132.72937458 -145.54563808 131.2922945 C-145.35936855 130.4488448 -145.17309902 129.60539509 -144.98118496 128.7363863 C-144.33377462 126.43010774 -143.41586477 124.53017231 -142.32688808 122.40557575 C-141.87767318 120.24934421 -141.4915136 118.07977356 -141.13938808 115.90557575 C-139.73765367 107.91049798 -137.88540383 100.03713227 -135.95188808 92.15557575 C-135.67191982 90.98446247 -135.39195156 89.81334919 -135.10349941 88.60674763 C-133.17484953 80.85502717 -130.56546355 73.69945904 -127.32688808 66.40557575 C-126.72032663 64.9273895 -126.11567035 63.44841727 -125.51438808 61.96807575 C-121.40145834 52.92615878 -116.12869349 44.90670851 -109.45188808 37.59307575 C-108.97549892 37.07124714 -108.49910976 36.54941853 -108.00828457 36.01177692 C-106.82754446 34.76411056 -105.58205833 33.57833583 -104.32688808 32.40557575 C-103.66688808 32.40557575 -103.00688808 32.40557575 -102.32688808 32.40557575 C-102.09227871 31.82807575 -101.85766933 31.25057575 -101.61595058 30.65557575 C-98.12460992 24.56159932 -90.77703491 20.24107968 -84.48704433 17.38995075 C-82.88678291 16.6607177 -81.31452442 15.8693466 -79.76048183 15.04620075 C-54.1029292 1.50180562 -28.43917839 -0.1967605 0 0 Z " fill="#FEFEFD" transform="translate(266.3268880844116,263.5944242477417)"/>
<path d="M0 0 C94.05 0 188.1 0 285 0 C284.02722903 5.83662585 282.75864299 11.50269684 281.375 17.25 C281.11356201 18.33812988 280.85212402 19.42625977 280.58276367 20.54736328 C277.38709371 33.70844056 273.88169992 46.79515374 270.20117188 59.82885742 C268.46432727 66.03085825 267.07064731 72.23513442 265.875 78.5625 C265.54168664 80.31430341 265.20587462 82.06563384 264.8671875 83.81640625 C264.72394043 84.57381104 264.58069336 85.33121582 264.43310547 86.11157227 C264 88 264 88 263 90 C237.46983532 90.04674038 211.93967705 90.08199886 186.40947819 90.10362434 C174.55511608 90.11393274 162.70078058 90.12798476 150.84643555 90.15087891 C140.51305306 90.1708261 130.17968983 90.18371961 119.84628862 90.18817699 C114.37589059 90.1907821 108.90554767 90.19689626 103.43516731 90.21146011 C98.2831089 90.22506498 93.13112817 90.22921675 87.9790535 90.22621536 C86.09129985 90.22676422 84.20354352 90.23072431 82.31580544 90.23841095 C79.7308335 90.2484177 77.14615167 90.24594811 74.56117249 90.24050903 C73.82087124 90.24633472 73.08057 90.2521604 72.31783539 90.25816262 C63.34146573 90.20739949 55.32298779 87.63574862 47.0625 84.3125 C46.18875732 83.9623584 45.31501465 83.6122168 44.41479492 83.25146484 C28.91907324 76.83814648 28.91907324 76.83814648 26 71 C24.86691406 70.34644531 24.86691406 70.34644531 23.7109375 69.6796875 C11.63336519 62.19646546 5.31296322 46.78597537 2.0625 33.5625 C1.85077148 32.74869873 1.63904297 31.93489746 1.42089844 31.09643555 C-0.90800414 20.56380501 0 11.2558681 0 0 Z " fill="#FEFEFE" transform="translate(181,128)"/>
<path d="M0 0 C47.26677446 -2.14848975 99.90291718 17.70098605 138 45 C138.7101123 45.50402344 139.42022461 46.00804687 140.15185547 46.52734375 C150.37810149 53.80868316 159.92240552 61.33245263 169 70 C170.42964416 71.2589773 171.86633393 72.51003631 173.3125 73.75 C198.00164962 95.22547931 217.18740515 124.57470814 231 154 C231.32564941 154.67933594 231.65129883 155.35867187 231.98681641 156.05859375 C244.86787159 183.03909744 256.49242589 216.65400689 255 247 C254.67 247 254.34 247 254 247 C253.72736328 245.1128125 253.72736328 245.1128125 253.44921875 243.1875 C252.66121371 237.78722285 251.83948442 232.39250041 251 227 C250.89316895 226.30745117 250.78633789 225.61490234 250.67626953 224.90136719 C247.96568642 207.78330047 243.67371321 190.17938747 236.84765625 174.22265625 C236 172 236 172 236 169 C235.34 169 234.68 169 234 169 C233.18243762 166.93950145 232.37115266 164.87651147 231.5625 162.8125 C231.11003906 161.66394531 230.65757812 160.51539063 230.19140625 159.33203125 C229.18906699 156.52876767 228.47987205 153.92887424 228 151 C227.34 151 226.68 151 226 151 C225.5153125 149.98421875 225.030625 148.9684375 224.53125 147.921875 C220.74536235 140.10508003 216.76967387 132.8141566 211.8046875 125.67578125 C210.17214627 123.25523852 208.7855058 120.83588041 207.4375 118.25 C205.36733936 114.3995012 202.84940491 111.39392247 199.90625 108.1796875 C195.36377441 102.98562729 190.89650682 97.29291837 188 91 C187.34 91 186.68 91 186 91 C184.6953125 89.671875 184.6953125 89.671875 183.125 87.75 C179.82675459 83.8672554 176.34825555 80.22651583 172.75 76.625 C172.23066895 76.10131836 171.71133789 75.57763672 171.17626953 75.03808594 C168.87657096 72.7465979 166.71107839 70.8073856 164 69 C164 68.34 164 67.68 164 67 C163.278125 66.76152344 162.55625 66.52304688 161.8125 66.27734375 C158.57858707 64.8086083 156.56787406 63.00599266 154 60.5625 C151.46029073 58.15374449 149.20638924 56.12182698 146.1875 54.33984375 C145.465625 53.89769531 144.74375 53.45554688 144 53 C144 52.34 144 51.68 144 51 C143.32839844 50.77183594 142.65679687 50.54367188 141.96484375 50.30859375 C138.17794108 48.63716767 134.9595001 46.40957983 131.5625 44.0625 C127.15962773 41.02862513 122.86114423 38.27654823 118 36 C118 35.34 118 34.68 118 34 C117.41992188 33.86851563 116.83984375 33.73703125 116.2421875 33.6015625 C109.835521 31.88270076 103.89632043 28.47024381 98 25.5 C89.61709544 21.29520623 81.98516884 17.85646371 72.82421875 15.70703125 C69.90472246 14.97614767 67.15294828 13.97800447 64.3515625 12.8828125 C43.47912777 5.04698152 22.06315312 3.19971381 0 1 C0 0.67 0 0.34 0 0 Z " fill="#FDFAD0" transform="translate(304,13)"/>
<path d="M0 0 C94.05 0 188.1 0 285 0 C284.4063599 3.5618406 283.81516721 7.01635242 283.02734375 10.5234375 C282.85009766 11.31621094 282.67285156 12.10898438 282.49023438 12.92578125 C282.30783203 13.73402344 282.12542969 14.54226562 281.9375 15.375 C281.75123047 16.20644531 281.56496094 17.03789062 281.37304688 17.89453125 C280.91681802 19.93001382 280.45860975 21.96505255 280 24 C279.67 24 279.34 24 279 24 C279.33 18.72 279.66 13.44 280 8 C280.66 8 281.32 8 282 8 C282 6.02 282 4.04 282 2 C189.6 2 97.2 2 2 2 C2 10.58 2 19.16 2 28 C1.67 28 1.34 28 1 28 C-0.5353688 18.78778719 0 9.33928382 0 0 Z " fill="#FEF7BB" transform="translate(181,128)"/>
<path d="M0 0 C15.84 0 31.68 0 48 0 C48 3.3 48 6.6 48 10 C32.16 10 16.32 10 0 10 C0 6.7 0 3.4 0 0 Z " fill="#FEFCEF" transform="translate(280,236)"/>
<path d="M0 0 C15.84 0 31.68 0 48 0 C48 3.3 48 6.6 48 10 C32.16 10 16.32 10 0 10 C0 6.7 0 3.4 0 0 Z " fill="#FEFEEF" transform="translate(215,236)"/>
<path d="M0 0 C15.51 0 31.02 0 47 0 C47 3.3 47 6.6 47 10 C31.49 10 15.98 10 0 10 C0 6.7 0 3.4 0 0 Z " fill="#FDFEF1" transform="translate(345,236)"/>
<path d="M0 0 C1.24142712 4.96570849 0.37261666 7.15547062 -1 12 C-26.53016468 12.04674038 -52.06032295 12.08199886 -77.59052181 12.10362434 C-89.44488392 12.11393274 -101.29921942 12.12798476 -113.15356445 12.15087891 C-123.48694694 12.1708261 -133.82031017 12.18371961 -144.15371138 12.18817699 C-149.62410941 12.1907821 -155.09445233 12.19689626 -160.56483269 12.21146011 C-165.7168911 12.22506498 -170.86887183 12.22921675 -176.0209465 12.22621536 C-177.90870015 12.22676422 -179.79645648 12.23072431 -181.68419456 12.23841095 C-184.2691665 12.2484177 -186.85384833 12.24594811 -189.43882751 12.24050903 C-190.17912876 12.24633472 -190.91943 12.2521604 -191.68216461 12.25816262 C-198.36563207 12.2203663 -205.94903836 11.83135462 -211 7 C-203.25 6.875 -203.25 6.875 -201 8 C-199.36746794 8.15136235 -197.72922082 8.2427105 -196.09088135 8.30528259 C-195.04256008 8.34560639 -193.99423882 8.38593019 -192.91415024 8.42747593 C-191.74913105 8.46550799 -190.58411186 8.50354006 -189.38378906 8.54272461 C-188.14697514 8.58454581 -186.91016121 8.62636702 -185.63586807 8.66945553 C-168.97183193 9.18310494 -152.3017078 9.22789624 -135.63109493 9.30332303 C-130.91332776 9.32559209 -126.1955886 9.35277535 -121.47784424 9.37937927 C-112.59292604 9.42876534 -103.70799185 9.47389851 -94.82304311 9.51740164 C-84.68713879 9.56724451 -74.55126263 9.62198397 -64.41538572 9.67708123 C-43.61028352 9.79006802 -22.80515429 9.89707959 -2 10 C-1.34 6.7 -0.68 3.4 0 0 Z " fill="#FBF2A7" transform="translate(445,206)"/>
<path d="M0 0 C0.33 0 0.66 0 1 0 C1.0424585 0.83080078 1.08491699 1.66160156 1.12866211 2.51757812 C1.6777668 11.65366451 2.95063554 20.48800712 4.5625 29.5 C5.02821213 32.11360585 5.48647264 34.72821331 5.94140625 37.34375 C6.14451416 38.48005859 6.34762207 39.61636719 6.55688477 40.78710938 C6.98693484 43.90526858 7.0804715 46.85715736 7 50 C7.66 50 8.32 50 9 50 C9.24234375 51.01578125 9.4846875 52.0315625 9.734375 53.078125 C14.36965162 72.25163404 20.61207294 91.92210903 30.90625 108.87890625 C32.12452974 111.24149875 32.59534979 113.38356854 33 116 C33.66 116 34.32 116 35 116 C35 117.32 35 118.64 35 120 C35.66 120 36.32 120 37 120 C38.11447903 121.72593645 39.13992032 123.50957511 40.125 125.3125 C44.18138448 132.47680328 48.82939842 139.06472392 53.9921875 145.47265625 C56.77371797 148.97392126 59.32277362 152.62985053 61.90234375 156.28125 C64.08437783 159.1093612 66.44885096 161.50247871 69 164 C71.4191952 166.59988373 73.78775398 169.24629926 76.15820312 171.890625 C78.75886077 174.84374738 78.75886077 174.84374738 82 177 C82.33 176.01 82.66 175.02 83 174 C83 175.65 83 177.3 83 179 C79.14010555 178.8830335 77.26339791 177.55803066 74.625 174.9375 C73.40335717 173.63737905 72.1950207 172.32463249 71 171 C70.47792969 170.43410156 69.95585938 169.86820313 69.41796875 169.28515625 C51.04289723 148.85350738 35.67272039 125.86666756 24 101 C23.67435059 100.32066406 23.34870117 99.64132812 23.01318359 98.94140625 C13.58284897 79.18874045 7.17064087 58.46344347 3 37 C2.83628906 36.17129395 2.67257813 35.34258789 2.50390625 34.48876953 C0.27381895 22.91212832 -0.37986399 11.7757838 0 0 Z " fill="#FEF9BE" transform="translate(21,296)"/>
<path d="M0 0 C58.46784478 -2.65762931 119.46402272 26.83343418 163 64 C162.67 64.99 162.34 65.98 162 67 C161.11957031 66.24074219 160.23914063 65.48148437 159.33203125 64.69921875 C158.15901882 63.69512011 156.98583252 62.69122458 155.8125 61.6875 C155.23435547 61.18798828 154.65621094 60.68847656 154.06054688 60.17382812 C151.46179215 57.95681138 149.02551098 56.0150886 146.07421875 54.26953125 C145.38972656 53.85058594 144.70523438 53.43164062 144 53 C144 52.34 144 51.68 144 51 C143.32839844 50.77183594 142.65679687 50.54367188 141.96484375 50.30859375 C138.17794108 48.63716767 134.9595001 46.40957983 131.5625 44.0625 C127.15962773 41.02862513 122.86114423 38.27654823 118 36 C118 35.34 118 34.68 118 34 C117.41992188 33.86851563 116.83984375 33.73703125 116.2421875 33.6015625 C109.835521 31.88270076 103.89632043 28.47024381 98 25.5 C89.61709544 21.29520623 81.98516884 17.85646371 72.82421875 15.70703125 C69.90472246 14.97614767 67.15294828 13.97800447 64.3515625 12.8828125 C43.47912777 5.04698152 22.06315312 3.19971381 0 1 C0 0.67 0 0.34 0 0 Z " fill="#FEF9C1" transform="translate(304,13)"/>
<path d="M0 0 C1.134375 0.020625 2.26875 0.04125 3.4375 0.0625 C0.54263671 1.99240886 -1.07597735 2.56143608 -4.39453125 3.28125 C-5.35939453 3.49136719 -6.32425781 3.70148437 -7.31835938 3.91796875 C-8.32705078 4.13066406 -9.33574219 4.34335937 -10.375 4.5625 C-11.34115234 4.77519531 -12.30730469 4.98789062 -13.30273438 5.20703125 C-16.38238188 5.86796942 -19.46805621 6.47486873 -22.5625 7.0625 C-23.5419458 7.25739014 -24.5213916 7.45228027 -25.53051758 7.65307617 C-36.65415526 9.57266095 -47.85294734 9.39936305 -59.10913086 9.37817383 C-62.59325922 9.37502865 -66.07652379 9.39848709 -69.56054688 9.42382812 C-83.49199033 9.46126529 -96.84155366 8.49032762 -110.5625 6.0625 C-110.5625 5.7325 -110.5625 5.4025 -110.5625 5.0625 C-109.345625 5.041875 -108.12875 5.02125 -106.875 5 C-105.84826172 4.98259766 -105.84826172 4.98259766 -104.80078125 4.96484375 C-102.5625 5.0625 -102.5625 5.0625 -100.32484436 5.55952454 C-97.20750203 6.12713903 -94.29568805 6.1970281 -91.12670898 6.20776367 C-89.20331947 6.21733345 -89.20331947 6.21733345 -87.24107361 6.22709656 C-85.84691404 6.22862629 -84.45275397 6.22973969 -83.05859375 6.23046875 C-81.61475085 6.23368665 -80.17090827 6.23705111 -78.72706604 6.24055481 C-75.70011644 6.24653576 -72.67319533 6.24839598 -69.64624023 6.24780273 C-65.79908657 6.24770164 -61.95211966 6.26130361 -58.10501003 6.27857494 C-55.12011404 6.28979207 -52.13526165 6.29171892 -49.15034676 6.29119301 C-47.73401311 6.29236049 -46.31767786 6.29671157 -44.90136528 6.30452538 C-36.31515525 6.34742956 -27.94616355 6.08933588 -19.5625 4.0625 C-19.2325 3.7325 -18.9025 3.4025 -18.5625 3.0625 C-14.94628521 2.48390563 -11.31948478 2.0311432 -7.6875 1.5625 C-3.88787232 0.95455957 -3.99968493 0.07016991 0 0 Z " fill="#F5E14B" transform="translate(358.5625,541.9375)"/>
<path d="M0 0 C0.66 0 1.32 0 2 0 C1.01 4.95 0.02 9.9 -1 15 C-44.56 15 -88.12 15 -133 15 C-133 14.67 -133 14.34 -133 14 C-89.77 14 -46.54 14 -2 14 C-2 11.36 -2 8.72 -2 6 C-1.34 6 -0.68 6 0 6 C-0.185625 5.195625 -0.37125 4.39125 -0.5625 3.5625 C-0.7790625 2.2940625 -0.7790625 2.2940625 -1 1 C-0.67 0.67 -0.34 0.34 0 0 Z " fill="#FEFEC7" transform="translate(367,337)"/>
<path d="M0 0 C0.33 0 0.66 0 1 0 C1 2.64 1 5.28 1 8 C0.34 8 -0.32 8 -1 8 C-0.97679687 8.556875 -0.95359375 9.11375 -0.9296875 9.6875 C-0.79990495 15.1754478 -1.40386631 19.74214786 -3 25 C-3.33 25.33 -3.66 25.66 -4 26 C-4.23287008 27.68183948 -4.41264166 29.3712416 -4.5625 31.0625 C-4.64628906 31.98160156 -4.73007813 32.90070313 -4.81640625 33.84765625 C-4.87699219 34.55792969 -4.93757812 35.26820313 -5 36 C-5.66 36 -6.32 36 -7 36 C-7.75765078 40.97884798 -8.29421251 45.94229788 -8.71875 50.9609375 C-9 53 -9 53 -10 54 C-10.2165625 55.546875 -10.2165625 55.546875 -10.4375 57.125 C-11 61 -11 61 -12 64.3125 C-13.05724244 68.21108149 -13.4101547 71.84577556 -13.65625 75.86328125 C-14 78 -14 78 -16 80 C-16.71408334 81.98356483 -17.38617742 83.98315437 -18 86 C-19.35705411 82.24485615 -18.64244652 79.53461709 -17.70703125 75.71484375 C-17.40845215 74.47130127 -17.10987305 73.22775879 -16.80224609 71.9465332 C-16.47236805 70.61017959 -16.1424519 69.27383538 -15.8125 67.9375 C-15.15096262 65.20147432 -14.49558502 62.46398221 -13.83984375 59.7265625 C-13.67760315 59.05319351 -13.51536255 58.37982452 -13.34820557 57.68605042 C-12.0829121 52.41462761 -10.94403014 47.12658093 -9.875 41.8125 C-8.43679052 34.7375621 -6.67895846 27.78122684 -4.7956543 20.8125 C-2.9434073 13.92257614 -1.403827 6.99630857 0 0 Z " fill="#F2DE39" transform="translate(228,376)"/>
<path d="M0 0 C0.87462891 0.00451172 1.74925781 0.00902344 2.65039062 0.01367188 C4.78779047 0.02535166 6.92515463 0.04328311 9.0625 0.0625 C9.0625 0.3925 9.0625 0.7225 9.0625 1.0625 C7.67744263 1.18310791 7.67744263 1.18310791 6.2644043 1.30615234 C2.8364795 1.6087369 -0.59057561 1.91895704 -4.01733398 2.234375 C-5.50013107 2.36927792 -6.98320829 2.50113786 -8.46655273 2.62988281 C-10.5996073 2.81555211 -12.7314124 3.01216924 -14.86328125 3.2109375 C-16.14630127 3.32614746 -17.42932129 3.44135742 -18.7512207 3.56005859 C-22.08377318 3.8578912 -22.08377318 3.8578912 -24.9375 6.0625 C-30.4052863 8.03090307 -35.21526599 8.29606057 -40.9375 8.0625 C-40.9375 8.7225 -40.9375 9.3825 -40.9375 10.0625 C-44.53941137 10.76219035 -48.14429669 11.44514431 -51.75 12.125 C-52.77416016 12.32416016 -53.79832031 12.52332031 -54.85351562 12.72851562 C-55.83642578 12.91220703 -56.81933594 13.09589844 -57.83203125 13.28515625 C-59.19098511 13.54437866 -59.19098511 13.54437866 -60.57739258 13.80883789 C-62.9375 14.0625 -62.9375 14.0625 -65.9375 13.0625 C-49.80703636 7.71427068 -33.69328968 3.88051204 -16.9375 1.0625 C-15.73996094 0.85496094 -14.54242188 0.64742187 -13.30859375 0.43359375 C-8.85956542 -0.05616024 -4.47145288 -0.04420448 0 0 Z " fill="#FCF28C" transform="translate(267.9375,12.9375)"/>
<path d="M0 0 C0.33 0 0.66 0 1 0 C0.47462276 5.0302076 -0.10594786 10.01885239 -1 15 C2.15109463 16.07598353 5.282453 17.07565705 8.5 17.9375 C12 19 12 19 14.9375 20.5625 C18.7358544 22.34540104 21.83415208 22.64087518 26 23 C26 23.66 26 24.32 26 25 C27.69576172 25.18949219 27.69576172 25.18949219 29.42578125 25.3828125 C34.07205697 25.96397931 38.60962019 26.90437939 43.1875 27.875 C53.73005255 30.05552795 64.33118478 31.58606063 75 33 C75 33.33 75 33.66 75 34 C67.39924538 34.2159515 60.23613471 33.67884243 52.75 32.375 C51.71858887 32.1982373 50.68717773 32.02147461 49.62451172 31.83935547 C4.83517795 23.83517795 4.83517795 23.83517795 -2 17 C-2.39294098 11.61439721 -1.99294046 6.29568248 -1 1 C-0.67 0.67 -0.34 0.34 0 0 Z " fill="#FCF7C0" transform="translate(194,517)"/>
<path d="M0 0 C22.33729379 -1.01533154 43.63926365 3.8411379 65 10 C66.05405029 10.30236572 66.05405029 10.30236572 67.12939453 10.61083984 C76.58299963 13.37449944 76.58299963 13.37449944 79 17 C73.96263246 16.00885129 69.25406669 14.7819056 64.45703125 12.91796875 C43.52369217 5.0970869 22.12208569 3.20558944 0 1 C0 0.67 0 0.34 0 0 Z " fill="#FEF8B0" transform="translate(304,13)"/>
<path d="M0 0 C0.33 0 0.66 0 1 0 C1.99773072 6.66370155 2.17663991 13.19345298 2.203125 19.92578125 C2.20882507 21.0679863 2.21452515 22.21019135 2.22039795 23.38700867 C2.22981567 25.80169764 2.23636904 28.21639927 2.24023438 30.63110352 C2.24986809 34.262772 2.28089353 37.89385638 2.3125 41.52539062 C2.37197103 54.9869348 1.68612516 67.79524372 -1 81 C-1.33 81 -1.66 81 -2 81 C-2.02683987 78.02077407 -2.04676037 75.04178705 -2.0625 72.0625 C-2.07087891 71.21236328 -2.07925781 70.36222656 -2.08789062 69.48632812 C-2.09111328 68.67744141 -2.09433594 67.86855469 -2.09765625 67.03515625 C-2.10289307 66.2862915 -2.10812988 65.53742676 -2.11352539 64.76586914 C-2 63 -2 63 -1 62 C0.16557709 55.13848958 0.12910162 48.35110517 0.09765625 41.40625 C0.0962413 40.21898315 0.09482635 39.03171631 0.09336853 37.80847168 C0.08779811 34.03895484 0.07525105 30.26949871 0.0625 26.5 C0.05748118 23.93489669 0.05291894 21.36979245 0.04882812 18.8046875 C0.03783836 12.53643783 0.02112981 6.26822325 0 0 Z " fill="#F4DF40" transform="translate(557,252)"/>
<path d="M0 0 C0 0.33 0 0.66 0 1 C-0.6072139 1.01030746 -1.2144278 1.02061493 -1.84004211 1.03123474 C-8.15022613 1.13927232 -14.46026655 1.25387267 -20.77026367 1.37231445 C-23.12635295 1.41567208 -25.48247383 1.45734654 -27.83862305 1.49731445 C-31.22193938 1.55499676 -34.60509657 1.61869731 -37.98828125 1.68359375 C-39.04461258 1.70030624 -40.10094391 1.71701874 -41.18928528 1.73423767 C-42.66047066 1.7641555 -42.66047066 1.7641555 -44.16137695 1.79467773 C-45.02519485 1.81022202 -45.88901276 1.8257663 -46.77900696 1.84178162 C-49.17365425 1.92009739 -49.17365425 1.92009739 -52 3 C-55.24238627 3.25767308 -58.47862321 3.44246808 -61.7265625 3.60546875 C-65.15564977 3.50681691 -65.15564977 3.50681691 -68 5 C-69.66617115 5.04063832 -71.33388095 5.042721 -73 5 C-71.1934834 2.67039894 -70.16375555 2.03657536 -67.2421875 1.3840332 C-66.13101563 1.27406006 -65.01984375 1.16408691 -63.875 1.05078125 C-61.99808472 0.86177246 -61.99808472 0.86177246 -60.08325195 0.66894531 C-58.7222875 0.54876876 -57.36119937 0.42998585 -56 0.3125 C-55.31304047 0.24929565 -54.62608093 0.18609131 -53.91830444 0.12097168 C-35.9348175 -1.52149875 -17.98645961 -1.72272583 0 0 Z " fill="#F9DF34" transform="translate(316,14)"/>
<path d="M0 0 C3.52650144 2.35100096 3.5621521 3.02942979 4.5 6.99609375 C4.86907471 8.53317993 4.86907471 8.53317993 5.24560547 10.10131836 C5.49455566 11.2022583 5.74350586 12.30319824 6 13.4375 C6.26055176 14.56099854 6.52110352 15.68449707 6.78955078 16.84204102 C9.7097838 29.70549398 12.65202822 42.74209277 12 56 C11.67 56 11.34 56 11 56 C10.81824219 54.741875 10.63648438 53.48375 10.44921875 52.1875 C8.13860058 36.36147595 5.45894165 20.94184753 0.98828125 5.5703125 C0 2 0 2 0 0 Z " fill="#FEF9BE" transform="translate(547,204)"/>
<path d="M0 0 C0.66 0.33 1.32 0.66 2 1 C1.3503125 1.72316406 1.3503125 1.72316406 0.6875 2.4609375 C0.130625 3.09257813 -0.42625 3.72421875 -1 4.375 C-1.556875 5.00148438 -2.11375 5.62796875 -2.6875 6.2734375 C-4.20172487 7.90389833 -4.20172487 7.90389833 -4 10 C-6.64738916 11.4606285 -7.89448334 12 -11 12 C-11 12.66 -11 13.32 -11 14 C-13.75 16.6875 -13.75 16.6875 -17 19 C-19.203125 18.64453125 -19.203125 18.64453125 -21 18 C-14.6352053 11.18057711 -7.38049321 5.66076664 0 0 Z " fill="#FCE758" transform="translate(128,65)"/>
<path d="M0 0 C0.33 0 0.66 0 1 0 C1.13277344 1.28777344 1.26554687 2.57554687 1.40234375 3.90234375 C1.58049899 5.58075362 1.75889692 7.25913773 1.9375 8.9375 C2.02451172 9.78763672 2.11152344 10.63777344 2.20117188 11.51367188 C2.28818359 12.32255859 2.37519531 13.13144531 2.46484375 13.96484375 C2.543396 14.7137085 2.62194824 15.46257324 2.70288086 16.23413086 C2.8280738 18.02140013 2.8280738 18.02140013 4 19 C4.15655027 20.48638992 4.25066943 21.97949127 4.31640625 23.47265625 C4.35830078 24.37177734 4.40019531 25.27089844 4.44335938 26.19726562 C4.48267578 27.14279297 4.52199219 28.08832031 4.5625 29.0625 C4.60568359 30.01189453 4.64886719 30.96128906 4.69335938 31.93945312 C4.79979276 34.29281353 4.90181008 36.64628354 5 39 C5.66 39 6.32 39 7 39 C7.22786458 41.05078125 7.45572917 43.1015625 7.68359375 45.15234375 C7.81886614 47.01140229 7.81886614 47.01140229 9 48 C9.04092937 50.33297433 9.04241723 52.66705225 9 55 C8.67 55 8.34 55 8 55 C8 53.35 8 51.7 8 50 C7.34 50 6.68 50 6 50 C3.0703125 32.421875 3.0703125 32.421875 2.53955078 29.20996094 C2.17994847 27.07057129 1.80852395 24.93313513 1.42529297 22.79785156 C0.43396582 17.19469813 -0.23880209 11.94010462 -0.125 6.25 C-0.10695313 5.05890625 -0.08890625 3.8678125 -0.0703125 2.640625 C-0.04710938 1.76921875 -0.02390625 0.8978125 0 0 Z " fill="#F8DF42" transform="translate(22,296)"/>
<path d="M0 0 C0.33 0 0.66 0 1 0 C1 2.64 1 5.28 1 8 C0.34 8 -0.32 8 -1 8 C-0.97679687 8.556875 -0.95359375 9.11375 -0.9296875 9.6875 C-0.79990495 15.1754478 -1.40386631 19.74214786 -3 25 C-3.33 25.33 -3.66 25.66 -4 26 C-4.23287008 27.68183948 -4.41264166 29.3712416 -4.5625 31.0625 C-4.68818359 32.44115234 -4.68818359 32.44115234 -4.81640625 33.84765625 C-4.87699219 34.55792969 -4.93757812 35.26820313 -5 36 C-5.66 36 -6.32 36 -7 36 C-7.12375 37.11375 -7.2475 38.2275 -7.375 39.375 C-8 43 -8 43 -10 45 C-9.16949009 39.49673102 -7.934022 34.10769083 -6.6875 28.6875 C-6.46747314 27.72505371 -6.24744629 26.76260742 -6.02075195 25.77099609 C-4.05042439 17.17204039 -2.03766218 8.58322504 0 0 Z " fill="#F8E043" transform="translate(228,376)"/>
<path d="M0 0 C5.53577953 5.53577953 6.36150142 18.31219448 7.75 25.9375 C7.87753662 26.62207275 8.00507324 27.30664551 8.13647461 28.01196289 C8.95097806 32.73036707 9.10698466 37.21243658 9 42 C6.8755025 38.45917084 6.53491637 35.05008109 6 31 C5.67 30.67 5.34 30.34 5 30 C4.83974099 28.67044375 4.72238997 27.33563392 4.625 26 C4.29847526 22.65575468 3.68298556 19.82872864 2.5 16.6875 C0.52384826 11.25067276 0.28158924 5.73859452 0 0 Z " fill="#F3E049" transform="translate(548,210)"/>
<path d="M0 0 C0 0.66 0 1.32 0 2 C-5.37960234 3.9076604 -10.61302175 5.43550362 -16.25 6.375 C-17.11625 6.684375 -17.11625 6.684375 -18 7 C-18.33 7.99 -18.66 8.98 -19 10 C-20.98 10.33 -22.96 10.66 -25 11 C-25 11.66 -25 12.32 -25 13 C-27.66666667 13.66666667 -30.33333333 14.33333333 -33 15 C-34.12148437 15.28037109 -34.12148437 15.28037109 -35.265625 15.56640625 C-35.83796875 15.70949219 -36.4103125 15.85257813 -37 16 C-34.78454284 13.5418432 -32.73163054 12.22431102 -29.71875 10.87890625 C-28.88142334 10.50241943 -28.04409668 10.12593262 -27.18139648 9.73803711 C-26.29653564 9.35010986 -25.4116748 8.96218262 -24.5 8.5625 C-23.60031494 8.16361572 -22.70062988 7.76473145 -21.77368164 7.35375977 C-5.03946411 0 -5.03946411 0 0 0 Z " fill="#FDF6A0" transform="translate(202,27)"/>
<path d="M0 0 C0.33 0 0.66 0 1 0 C1.33115352 5.18807184 0.49536739 8.87753832 -1.27734375 13.7421875 C-1.96862627 15.90197831 -2.29255765 17.81152978 -2.5 20.0625 C-2.97788865 23.82587313 -3.895153 26.63206057 -5.30078125 30.1015625 C-6.25249164 32.68553596 -6.65945386 35.27563086 -7 38 C-7.66 38 -8.32 38 -9 38 C-8.40402275 32.05377246 -7.18928145 26.59925087 -5.5 20.875 C-4.05550184 15.93068914 -2.71907659 11.1152494 -2 6 C-1.34 6 -0.68 6 0 6 C0 4.02 0 2.04 0 0 Z " fill="#F7E34B" transform="translate(388,264)"/>
<path d="M0 0 C0.33 0.66 0.66 1.32 1 2 C0.273668 3.94789035 -0.45777551 5.8942498 -1.23046875 7.82421875 C-2.31053545 10.8780114 -2.6651047 13.78500511 -3 17 C-3.66 17 -4.32 17 -5 17 C-6.37310707 18.29233607 -7.71034824 19.62437146 -9 21 C-10 18 -10 18 -9.19555664 16.00708008 C-8.55928345 14.89949341 -8.55928345 14.89949341 -7.91015625 13.76953125 C-7.45576172 12.96708984 -7.00136719 12.16464844 -6.53320312 11.33789062 C-6.04787109 10.50451172 -5.56253906 9.67113281 -5.0625 8.8125 C-4.58103516 7.96751953 -4.09957031 7.12253906 -3.60351562 6.25195312 C-2.4112945 4.16261511 -1.20990182 2.07913325 0 0 Z " fill="#F4E033" transform="translate(56,146)"/>
<path d="M0 0 C1.134375 0.020625 2.26875 0.04125 3.4375 0.0625 C0.53349541 1.99850306 -1.13286819 2.57990319 -4.46484375 3.31640625 C-5.43284912 3.53079346 -6.40085449 3.74518066 -7.39819336 3.96606445 C-8.42178955 4.18351318 -9.44538574 4.40096191 -10.5 4.625 C-12.05376343 4.95987427 -12.05376343 4.95987427 -13.63891602 5.30151367 C-20.61563277 6.76277531 -27.42102715 7.89356193 -34.5625 8.0625 C-31.28138625 5.87509083 -29.29415037 5.55294144 -25.4375 5 C-21.68333165 4.74476276 -21.68333165 4.74476276 -18.5625 3.0625 C-14.94628521 2.48390563 -11.31948478 2.0311432 -7.6875 1.5625 C-3.88787232 0.95455957 -3.99968493 0.07016991 0 0 Z " fill="#F1DE56" transform="translate(358.5625,541.9375)"/>
<path d="M0 0 C1.19538694 3.58616081 0.70156182 4.79769664 -0.36328125 8.3671875 C-0.67330078 9.41777344 -0.98332031 10.46835937 -1.30273438 11.55078125 C-1.80256836 13.19626953 -1.80256836 13.19626953 -2.3125 14.875 C-2.63412109 15.96425781 -2.95574219 17.05351562 -3.28710938 18.17578125 C-4.68716126 22.87328593 -6.12250879 27.46826676 -8 32 C-8.33 32 -8.66 32 -9 32 C-9.26252625 27.66831683 -8.29243536 24.1196377 -7 20 C-6.34 20 -5.68 20 -5 20 C-5.061875 19.030625 -5.12375 18.06125 -5.1875 17.0625 C-5.19991794 10.95287125 -2.7773067 5.3493342 0 0 Z " fill="#F2DC39" transform="translate(552,344)"/>
<path d="M0 0 C-1.50551342 4.21543758 -4.17944866 5.86049125 -8 8 C-9.32 8 -10.64 8 -12 8 C-12 8.66 -12 9.32 -12 10 C-14.31 10.33 -16.62 10.66 -19 11 C-15.84559881 7.4882036 -12.53598933 5.44790407 -8.375 3.25 C-7.22773438 2.63640625 -6.08046875 2.0228125 -4.8984375 1.390625 C-2 0 -2 0 0 0 Z " fill="#FAEB6D" transform="translate(165,43)"/>
<path d="M0 0 C-11.9140625 5.95703125 -11.9140625 5.95703125 -14.01660156 7.00244141 C-15.8010786 7.89995164 -17.56964347 8.8289335 -19.3359375 9.76171875 C-22 11 -22 11 -25 11 C-24.67 10.01 -24.34 9.02 -24 8 C-20.535 7.505 -20.535 7.505 -17 7 C-17 6.01 -17 5.02 -17 4 C-16.278125 4.0825 -15.55625 4.165 -14.8125 4.25 C-11.14579924 3.92407104 -9.76668454 2.34104076 -7 0 C-3.93078417 -1.1735237 -3.231697 -1.07723233 0 0 Z " fill="#F2DD30" transform="translate(419,520)"/>
<path d="M0 0 C1.28986621 3.86959862 0.47089166 6.86494452 -0.3125 10.75 C-0.44333984 11.4409375 -0.57417969 12.131875 -0.70898438 12.84375 C-1.98197865 19.38706354 -3.84626461 25.69263208 -6 32 C-6.33 32 -6.66 32 -7 32 C-7.04254356 30.00045254 -7.04080783 27.99958364 -7 26 C-6.67 25.67 -6.34 25.34 -6 25 C-5.63239269 22.67182036 -5.29758419 20.3381615 -5 18 C-4.34 18 -3.68 18 -3 18 C-3.01160156 17.36191406 -3.02320312 16.72382813 -3.03515625 16.06640625 C-3.04869141 14.82697266 -3.04869141 14.82697266 -3.0625 13.5625 C-3.07410156 12.73878906 -3.08570312 11.91507812 -3.09765625 11.06640625 C-3 9 -3 9 -2 8 C-1.835 6.845 -1.67 5.69 -1.5 4.5 C-1 1 -1 1 0 0 Z " fill="#F6E346" transform="translate(126,370)"/>
<path d="M0 0 C2.38564077 0.57584432 4.66682784 1.22227595 7 2 C7 2.66 7 3.32 7 4 C8.2065625 4.309375 8.2065625 4.309375 9.4375 4.625 C14.110473 6.42860362 17.92616004 9.12115309 22 12 C21.01 12.495 21.01 12.495 20 13 C18.0546875 12.22265625 18.0546875 12.22265625 15.875 11.0625 C15.15054687 10.68222656 14.42609375 10.30195312 13.6796875 9.91015625 C13.12539063 9.60980469 12.57109375 9.30945312 12 9 C12 8.34 12 7.68 12 7 C9.69 6.67 7.38 6.34 5 6 C5 5.01 5 4.02 5 3 C3.35 2.67 1.7 2.34 0 2 C0 1.34 0 0.68 0 0 Z " fill="#F4E041" transform="translate(415,45)"/>
<path d="M0 0 C0.33 0 0.66 0 1 0 C1 3.3 1 6.6 1 10 C0.34 10 -0.32 10 -1 10 C-1 12.31 -1 14.62 -1 17 C-1.66 17 -2.32 17 -3 17 C-3 18.98 -3 20.96 -3 23 C-3.66 23.33 -4.32 23.66 -5 24 C-4.41640925 15.68383188 -2.26200586 7.98540674 0 0 Z " fill="#F7E049" transform="translate(450,190)"/>
<path d="M0 0 C-0.99 0 -1.98 0 -3 0 C-3 0.66 -3 1.32 -3 2 C-4.2065625 2.4640625 -4.2065625 2.4640625 -5.4375 2.9375 C-7.89080405 3.76335345 -7.89080405 3.76335345 -9 5 C-10.69141656 4.91036938 -12.37959602 4.75422324 -14.0625 4.5625 C-15.44115234 4.40974609 -15.44115234 4.40974609 -16.84765625 4.25390625 C-17.55792969 4.17011719 -18.26820313 4.08632813 -19 4 C-15.91433716 1.94289144 -13.63014688 1.21653907 -10.0625 0.3125 C-8.50208984 -0.09548828 -8.50208984 -0.09548828 -6.91015625 -0.51171875 C-4.1294044 -0.97828785 -2.61519118 -0.93894816 0 0 Z " fill="#FCF9C5" transform="translate(225,267)"/>
<path d="M0 0 C1.15119069 3.45357208 0.85908953 6.01128919 0.1875 9.5625 C0.01605469 10.51253906 -0.15539062 11.46257812 -0.33203125 12.44140625 C-1 15 -1 15 -3 18 C-3.66158043 20.04584079 -3.66158043 20.04584079 -4.125 22.1875 C-4.41375 23.445625 -4.7025 24.70375 -5 26 C-5.95329418 22.95493291 -5.99465995 20.91449069 -5.29296875 17.8125 C-5.0309668 16.64074219 -5.0309668 16.64074219 -4.76367188 15.4453125 C-4.57353516 14.63835937 -4.38339844 13.83140625 -4.1875 13 C-3.91969727 11.78957031 -3.91969727 11.78957031 -3.64648438 10.5546875 C-2.77611614 6.74643369 -1.85410547 3.4621639 0 0 Z " fill="#FEF7B5" transform="translate(124,386)"/>
<path d="M0 0 C0.66 0 1.32 0 2 0 C0.1010101 12.48484848 0.1010101 12.48484848 -2 18 C-2.37125 19.11375 -2.7425 20.2275 -3.125 21.375 C-3.41375 22.24125 -3.7025 23.1075 -4 24 C-5.03159626 20.90521121 -4.97482862 19.47368607 -4.5625 16.3125 C-4.46066406 15.50425781 -4.35882813 14.69601562 -4.25390625 13.86328125 C-4.17011719 13.24839844 -4.08632813 12.63351562 -4 12 C-3.34 12 -2.68 12 -2 12 C-1.855625 11.13375 -1.71125 10.2675 -1.5625 9.375 C-1.04166667 6.25 -0.52083333 3.125 0 0 Z " fill="#FDFAB7" transform="translate(377,300)"/>
<path d="M0 0 C1.64630328 0.14042877 3.29204179 0.28749329 4.9375 0.4375 C6.31228516 0.55931641 6.31228516 0.55931641 7.71484375 0.68359375 C10 1 10 1 11 2 C12.03125 2.144375 13.0625 2.28875 14.125 2.4375 C17.94345392 2.9917917 21.32219105 3.87414012 25 5 C25 5.66 25 6.32 25 7 C19.49191603 6.40984815 14.35121931 5.43336231 9 4 C9 3.34 9 2.68 9 2 C6.36 2 3.72 2 1 2 C0.67 1.34 0.34 0.68 0 0 Z " fill="#F6E24C" transform="translate(211,538)"/>
<path d="M0 0 C1.39167773 2.78335546 0.63064115 4.1672139 -0.14453125 7.15625 C-0.40943359 8.17847656 -0.67433594 9.20070312 -0.94726562 10.25390625 C-1.23279297 11.32511719 -1.51832031 12.39632812 -1.8125 13.5 C-2.08642578 14.57121094 -2.36035156 15.64242187 -2.64257812 16.74609375 C-4.74594338 24.74594338 -4.74594338 24.74594338 -7 27 C-6.86722656 26.31035156 -6.73445313 25.62070313 -6.59765625 24.91015625 C-5.47696987 18.94679588 -4.59395227 13.03851471 -4 7 C-3.34 7 -2.68 7 -2 7 C-1.855625 6.030625 -1.71125 5.06125 -1.5625 4.0625 C-1 1 -1 1 0 0 Z " fill="#FEFBC3" transform="translate(459,153)"/>
<path d="M0 0 C0.33 0 0.66 0 1 0 C1 2.64 1 5.28 1 8 C0.34 8 -0.32 8 -1 8 C-0.97679687 8.58007812 -0.95359375 9.16015625 -0.9296875 9.7578125 C-0.81749577 14.61411166 -1.12485085 18.42932395 -3 23 C-3.33 23 -3.66 23 -4 23 C-4.65720455 14.94924431 -2.22928846 7.64327471 0 0 Z " fill="#F6E14A" transform="translate(208,462)"/>
<path d="M0 0 C3.23861303 1.44424635 5.61969163 3.25772247 8.25 5.625 C8.95640625 6.25664062 9.6628125 6.88828125 10.390625 7.5390625 C10.92171875 8.02117187 11.4528125 8.50328125 12 9 C12.33 8.01 12.66 7.02 13 6 C13 7.65 13 9.3 13 11 C8.02753179 10.84931915 5.73646624 8.14378072 2.453125 4.7890625 C1 3 1 3 0 0 Z " fill="#FEFBDA" transform="translate(91,464)"/>
<path d="M0 0 C3.30669336 2.73692466 4.86780532 6.39995179 6.6875 10.1875 C7.00783203 10.84169922 7.32816406 11.49589844 7.65820312 12.16992188 C8.44428292 13.77727907 9.22288683 15.38828858 10 17 C8 17 8 17 6.54296875 15.84375 C4.62405083 13.55076454 3.53320599 11.22734312 2.3125 8.5 C1.87550781 7.5409375 1.43851563 6.581875 0.98828125 5.59375 C0 3 0 3 0 0 Z " fill="#FCFBDC" transform="translate(523,146)"/>
<path d="M0 0 C1.1725131 0.95117134 2.33787015 1.91117009 3.5 2.875 C4.47453125 3.67550781 4.47453125 3.67550781 5.46875 4.4921875 C5.9740625 4.98976563 6.479375 5.48734375 7 6 C7 6.66 7 7.32 7 8 C7.66 8 8.32 8 9 8 C10.7143618 9.95927063 12.38405168 11.95880212 14 14 C13.67 14.66 13.34 15.32 13 16 C7.75688721 11.95531299 3.06334128 7.96545406 0 2 C0 1.34 0 0.68 0 0 Z " fill="#F6E350" transform="translate(483,96)"/>
<path d="M0 0 C0.33 0 0.66 0 1 0 C0.39700836 7.23589973 -1.1150587 13.99370876 -3 21 C-3.33 21 -3.66 21 -4 21 C-3.76139128 18.88660849 -3.52236522 16.77326327 -3.28125 14.66015625 C-3.09069615 12.85783442 -2.92475905 11.05277023 -2.78125 9.24609375 C-2.67296875 7.91771484 -2.67296875 7.91771484 -2.5625 6.5625 C-2.50191406 5.73878906 -2.44132813 4.91507812 -2.37890625 4.06640625 C-2 2 -2 2 0 0 Z " fill="#FEFBBA" transform="translate(211,445)"/>
<path d="M0 0 C0.33 0 0.66 0 1 0 C0.32545897 7.8246759 -1.26876958 15.34556614 -3 23 C-3.33 23 -3.66 23 -4 23 C-3.67 17.72 -3.34 12.44 -3 7 C-2.34 7 -1.68 7 -1 7 C-0.67 4.69 -0.34 2.38 0 0 Z " fill="#FFFABF" transform="translate(464,129)"/>
<path d="M0 0 C0.33 0 0.66 0 1 0 C1.22084624 6.09781001 1.01167675 11.21642935 -1 17 C-1.66 17 -2.32 17 -3 17 C-2.48517081 11.147205 -1.54642808 5.6702363 0 0 Z " fill="#FEFCC3" transform="translate(114,425)"/>
<path d="M0 0 C0.99 0 1.98 0 3 0 C3 0.66 3 1.32 3 2 C1.609375 3.3671875 1.609375 3.3671875 -0.25 4.875 C-2.97805828 7.1327034 -5.54236923 9.444064 -8 12 C-7.67 10.35 -7.34 8.7 -7 7 C-6.34 7 -5.68 7 -5 7 C-5 6.01 -5 5.02 -5 4 C-4.01 4 -3.02 4 -2 4 C-1.34 2.68 -0.68 1.36 0 0 Z " fill="#F0DF2C" transform="translate(161,294)"/>
<path d="M0 0 C-2.64738916 1.4606285 -3.89448334 2 -7 2 C-7 2.66 -7 3.32 -7 4 C-9.66666667 4.66666667 -12.33333333 5.33333333 -15 6 C-15.74765625 6.18691406 -16.4953125 6.37382813 -17.265625 6.56640625 C-17.83796875 6.70949219 -18.4103125 6.85257813 -19 7 C-15.13433923 2.69114246 -5.68788403 -2.84394202 0 0 Z " fill="#FDF189" transform="translate(184,36)"/>
<path d="M0 0 C1.92838381 5.78515142 -1.6087114 11.67394812 -4 17 C-5.19908285 13.53151203 -4.78945844 11.40005188 -3.6875 7.9375 C-3.42324219 7.08027344 -3.15898437 6.22304688 -2.88671875 5.33984375 C-2 3 -2 3 0 0 Z " fill="#F5DC28" transform="translate(214,445)"/>
<path d="M0 0 C1 2 1 2 0.3984375 3.83984375 C-1.75547248 8.2545371 -3.31850554 10.91933579 -8 13 C-6.40956621 7.91061189 -3.2553049 4.12543357 0 0 Z " fill="#FCED81" transform="translate(72,122)"/>
<path d="M0 0 C0.33 0 0.66 0 1 0 C1.55353075 11.52164009 1.55353075 11.52164009 -2 17 C-3.44715727 13.12813552 -2.5441918 10.1767672 -1.5625 6.25 C-1.27503906 5.07953125 -0.98757812 3.9090625 -0.69140625 2.703125 C-0.46324219 1.81109375 -0.23507813 0.9190625 0 0 Z " fill="#F6E345" transform="translate(202,487)"/>
<path d="M0 0 C0.66 0 1.32 0 2 0 C2 0.99 2 1.98 2 3 C2.66 3 3.32 3 4 3 C4.103125 3.639375 4.20625 4.27875 4.3125 4.9375 C4.539375 5.618125 4.76625 6.29875 5 7 C5.99 7.33 6.98 7.66 8 8 C9.1875 11.5625 9.1875 11.5625 10 15 C5.81340142 11.17225273 2.62179138 7.05392126 0 2 C0 1.34 0 0.68 0 0 Z " fill="#F6DF42" transform="translate(59,418)"/>
<path d="M0 0 C0.66 0.33 1.32 0.66 2 1 C-1.09868852 5.07256205 -2.99443258 7.45982541 -8 9 C-9.34050052 9.65213539 -10.67661368 10.31379969 -12 11 C-8.68542782 6.30435607 -4.63720719 3.27530896 0 0 Z " fill="#FEF48A" transform="translate(128,65)"/>
<path d="M0 0 C-1.32 0.33 -2.64 0.66 -4 1 C-4.33 2.65 -4.66 4.3 -5 6 C-7.97 5.505 -7.97 5.505 -11 5 C-11 4.34 -11 3.68 -11 3 C-7.14243493 0.84694043 -4.44870215 -0.39253254 0 0 Z " fill="#F8DD2C" transform="translate(176,40)"/>
<path d="M0 0 C1.66285211 3.32570422 -0.01920148 6.68360945 -0.9375 10.125 C-1.13279297 10.87910156 -1.32808594 11.63320313 -1.52929688 12.41015625 C-2.01323358 14.27508306 -2.50580769 16.13776459 -3 18 C-3.96661363 14.87819599 -3.98988909 12.47916205 -3.5625 9.25 C-3.46066406 8.45078125 -3.35882813 7.6515625 -3.25390625 6.828125 C-3.17011719 6.22484375 -3.08632812 5.6215625 -3 5 C-2.34 5 -1.68 5 -1 5 C-0.67 3.35 -0.34 1.7 0 0 Z " fill="#F7DD49" transform="translate(112,431)"/>
<path d="M0 0 C1.51553092 3.97450493 0.49888623 7.20481149 -0.4375 11.25 C-0.72496094 12.51328125 -1.01242188 13.7765625 -1.30859375 15.078125 C-1.53675781 16.04234375 -1.76492187 17.0065625 -2 18 C-2.33 18 -2.66 18 -3 18 C-3.02689216 16.52093108 -3.04634621 15.04172517 -3.0625 13.5625 C-3.07410156 12.73878906 -3.08570313 11.91507812 -3.09765625 11.06640625 C-3 9 -3 9 -2 8 C-1.835 6.845 -1.67 5.69 -1.5 4.5 C-1 1 -1 1 0 0 Z " fill="#FEF9C3" transform="translate(230,362)"/>
<path d="M0 0 C3.40652614 1.13550871 4.49523872 2.49523872 7 5 C8.63978318 6.04349839 10.30094366 7.05607981 12 8 C8.53742534 9.15419155 8.02502312 8.8977049 4.875 7.375 C1.15508021 5.42647059 1.15508021 5.42647059 0 2.25 C0 1.5075 0 0.765 0 0 Z " fill="#F3DF47" transform="translate(205,198)"/>
<path d="M0 0 C0.97792207 3.18565522 1.04657813 5.81321089 0.75 9.125 C0.68296875 9.99382812 0.6159375 10.86265625 0.546875 11.7578125 C0 14 0 14 -3 16 C-2.40984815 10.49191603 -1.43336231 5.35121931 0 0 Z " fill="#FEFCBA" transform="translate(107,454)"/>
<path d="M0 0 C0.66 0 1.32 0 2 0 C0.58192622 4.47238653 -1.11304374 8.71146306 -3 13 C-5 9.25 -5 9.25 -5 7 C-4.01 7 -3.02 7 -2 7 C-1.855625 6.030625 -1.71125 5.06125 -1.5625 4.0625 C-1 1 -1 1 0 0 Z " fill="#F4DC2C" transform="translate(537,387)"/>
<path d="M0 0 C0.33 0 0.66 0 1 0 C1.8125 2.625 1.8125 2.625 2 6 C0.57631048 8.3586498 -1.05448008 10.00702837 -3 12 C-4 10 -4 10 -3.22265625 7.6171875 C-2.83980469 6.71226562 -2.45695312 5.80734375 -2.0625 4.875 C-1.68222656 3.96492187 -1.30195312 3.05484375 -0.91015625 2.1171875 C-0.60980469 1.41851562 -0.30945312 0.71984375 0 0 Z " fill="#F7DC2F" transform="translate(42,177)"/>
<path d="M0 0 C1.75 0.125 1.75 0.125 4 1 C6.3125 3.875 6.3125 3.875 8 7 C7.67 7.99 7.34 8.98 7 10 C5.83043409 8.52312468 4.66441854 7.04343707 3.5 5.5625 C2.8503125 4.73878906 2.200625 3.91507812 1.53125 3.06640625 C0 1 0 1 0 0 Z " fill="#FDF8C0" transform="translate(500,115)"/>
<path d="M0 0 C5.86809507 0.52393706 10.54873741 1.76108858 16 4 C16 4.33 16 4.66 16 5 C14.33388095 5.042721 12.66617115 5.04063832 11 5 C10.67 4.67 10.34 4.34 10 4 C8.65252916 3.76924918 7.29622435 3.58846937 5.9375 3.4375 C4.638125 3.293125 3.33875 3.14875 2 3 C2 2.34 2 1.68 2 1 C1.34 0.67 0.68 0.34 0 0 Z " fill="#F5E032" transform="translate(362,24)"/>
<path d="M0 0 C0.99 0.33 1.98 0.66 3 1 C1.88121617 2.17262904 0.75476949 3.33795138 -0.375 4.5 C-1.00148438 5.1496875 -1.62796875 5.799375 -2.2734375 6.46875 C-4 8 -4 8 -6 8 C-5.34 6.02 -4.68 4.04 -4 2 C-2.68 2 -1.36 2 0 2 C0 1.34 0 0.68 0 0 Z " fill="#F3DE26" transform="translate(470,480)"/>
<path d="M0 0 C1.53166168 4.08443115 0.63081652 7.79455657 0 12 C-0.66 12 -1.32 12 -2 12 C-2.33 12.66 -2.66 13.32 -3 14 C-2.48594831 9.03083364 -1.76615118 4.70973649 0 0 Z " fill="#F5E14D" transform="translate(371,330)"/>
<path d="M0 0 C0.66 0.33 1.32 0.66 2 1 C-0.97 4.96 -0.97 4.96 -4 9 C-4.99 8.67 -5.98 8.34 -7 8 C-4.69 5.36 -2.38 2.72 0 0 Z " fill="#FDFBC8" transform="translate(162,296)"/>
<path d="M0 0 C1.80411967 2.75924185 2.0127245 3.88972103 1.625 7.25 C1.41875 8.1575 1.2125 9.065 1 10 C0.01 10 -0.98 10 -2 10 C-1.54177532 6.53058454 -1.10868317 3.32604951 0 0 Z " fill="#EFE335" transform="translate(34,198)"/>
<path d="M0 0 C0.99 0 1.98 0 3 0 C3.33 1.65 3.66 3.3 4 5 C4.66 5 5.32 5 6 5 C6.66 6.98 7.32 8.96 8 11 C4.31993178 7.61831569 2.0214155 4.57478244 0 0 Z " fill="#FFFCC5" transform="translate(191,180)"/>
<path d="M0 0 C0.33 0 0.66 0 1 0 C1 2.64 1 5.28 1 8 C0.34 8 -0.32 8 -1 8 C-1 9.98 -1 11.96 -1 14 C-1.99 14.495 -1.99 14.495 -3 15 C-2.5547115 9.72684667 -1.91626837 4.98229776 0 0 Z " fill="#F5E556" transform="translate(454,174)"/>
<path d="M0 0 C1 2 1 2 0.546875 3.91015625 C0.28390625 4.62042969 0.0209375 5.33070313 -0.25 6.0625 C-0.62898438 7.13177734 -0.62898438 7.13177734 -1.015625 8.22265625 C-2 10 -2 10 -5 11 C-3.77472971 6.94718288 -2.30119506 3.55639236 0 0 Z " fill="#FBF088" transform="translate(56,146)"/>
<path d="M0 0 C0.33 1.32 0.66 2.64 1 4 C0.01 4.33 -0.98 4.66 -2 5 C-2 6.32 -2 7.64 -2 9 C-2.66 9 -3.32 9 -4 9 C-4 9.66 -4 10.32 -4 11 C-4.66 11 -5.32 11 -6 11 C-4.54955729 6.89041233 -2.48889248 3.56741255 0 0 Z " fill="#FDF08C" transform="translate(63,135)"/>
<path d="M0 0 C0.33 0 0.66 0 1 0 C1 2.64 1 5.28 1 8 C0.34 8 -0.32 8 -1 8 C-1 9.98 -1 11.96 -1 14 C-1.66 14 -2.32 14 -3 14 C-2.48594831 9.03083364 -1.76615118 4.70973649 0 0 Z " fill="#F3E03B" transform="translate(466,128)"/>
<path d="M0 0 C1.32 0.33 2.64 0.66 4 1 C2.71186658 1.83878455 1.41936744 2.67086783 0.125 3.5 C-0.59429687 3.9640625 -1.31359375 4.428125 -2.0546875 4.90625 C-4 6 -4 6 -6 6 C-5.67 4.68 -5.34 3.36 -5 2 C-3.35 2 -1.7 2 0 2 C0 1.34 0 0.68 0 0 Z " fill="#F9DC3D" transform="translate(432,509)"/>
<path d="M0 0 C2.34914492 2.34914492 2.73140357 3.95679446 3.625 7.125 C3.88539062 8.03507812 4.14578125 8.94515625 4.4140625 9.8828125 C4.70410156 10.93082031 4.70410156 10.93082031 5 12 C2.69857565 10.21825212 1.19965609 8.83695835 0.51171875 5.953125 C0.27676898 3.9753389 0.13248542 1.98728128 0 0 Z " fill="#FDF7AB" transform="translate(38,376)"/>
<path d="M0 0 C0.66 0 1.32 0 2 0 C2 0.99 2 1.98 2 3 C2.66 3 3.32 3 4 3 C4 4.65 4 6.3 4 8 C3.34 8 2.68 8 2 8 C1.67 8.99 1.34 9.98 1 11 C0.67 7.37 0.34 3.74 0 0 Z " fill="#F0DE21" transform="translate(392,235)"/>
<path d="M0 0 C1.07735006 3.23205018 0.92640423 4.33577435 0.1875 7.5625 C-0.06966797 8.74005859 -0.06966797 8.74005859 -0.33203125 9.94140625 C-1 12 -1 12 -3 14 C-3.042721 12.33388095 -3.04063832 10.66617115 -3 9 C-2.67 8.67 -2.34 8.34 -2 8 C-1.835 6.845 -1.67 5.69 -1.5 4.5 C-1 1 -1 1 0 0 Z " fill="#F3DC2C" transform="translate(126,370)"/>
<path d="M0 0 C3.81300782 3.2870757 5.22972246 6.39727838 7 11 C6.01 11.495 6.01 11.495 5 12 C3.5393715 9.35261084 3 8.10551666 3 5 C2.01 4.67 1.02 4.34 0 4 C0 2.68 0 1.36 0 0 Z " fill="#F8DE4A" transform="translate(510,129)"/>
<path d="M0 0 C0.33 0.66 0.66 1.32 1 2 C0.26418258 3.1549921 -0.48930039 4.29874185 -1.25 5.4375 C-1.66765625 6.07558594 -2.0853125 6.71367188 -2.515625 7.37109375 C-4.27248877 9.29902057 -5.46089803 9.61479436 -8 10 C-6.44303593 6.17836093 -3.96591316 3.81381505 -1 1 C-0.67 0.67 -0.34 0.34 0 0 Z " fill="#FAE657" transform="translate(81,112)"/>
<path d="M0 0 C0.99 0 1.98 0 3 0 C1.60667426 3.36720387 0.0210714 4.9859524 -3 7 C-2.67 5.35 -2.34 3.7 -2 2 C-1.34 2 -0.68 2 0 2 C0 1.34 0 0.68 0 0 Z " fill="#F6E52A" transform="translate(493,456)"/>
<path d="M0 0 C-2.70188004 1.80125336 -4.93057703 3.00243753 -8 4 C-8.99 3.67 -9.98 3.34 -11 3 C-10.67 2.34 -10.34 1.68 -10 1 C-6.6322481 0.06451336 -3.4815554 -0.09947301 0 0 Z " fill="#F1DC3A" transform="translate(384,535)"/>
<path d="M0 0 C0.33 0 0.66 0 1 0 C1.08096803 1.45742463 1.13917774 2.91612807 1.1875 4.375 C1.22230469 5.18710937 1.25710937 5.99921875 1.29296875 6.8359375 C1.19628906 7.55007813 1.09960938 8.26421875 1 9 C0.01 9.66 -0.98 10.32 -2 11 C-1 3.57142857 -1 3.57142857 0 0 Z " fill="#FEF8C1" transform="translate(110,442)"/>
<path d="M0 0 C0 0.33 0 0.66 0 1 C-3.63 1.33 -7.26 1.66 -11 2 C-11 1.34 -11 0.68 -11 0 C-6.94952424 -1.35015859 -4.2079832 -0.62084998 0 0 Z " fill="#FADD38" transform="translate(240,263)"/>
<path d="M0 0 C-0.1875 1.8125 -0.1875 1.8125 -1 4 C-3.4375 5.8125 -3.4375 5.8125 -6 7 C-6.66 6.67 -7.32 6.34 -8 6 C-7.0479279 4.99403703 -6.08812654 3.99538437 -5.125 3 C-4.59132813 2.443125 -4.05765625 1.88625 -3.5078125 1.3125 C-2 0 -2 0 0 0 Z " fill="#F6DD39" transform="translate(109,84)"/>
<path d="M0 0 C0.66 0.33 1.32 0.66 2 1 C1.67 1.99 1.34 2.98 1 4 C-1.31 4.33 -3.62 4.66 -6 5 C-2.25 1.125 -2.25 1.125 0 0 Z " fill="#FDEE88" transform="translate(152,49)"/>
<path d="M0 0 C1.65 0.99 3.3 1.98 5 3 C5.33 2.01 5.66 1.02 6 0 C6 1.65 6 3.3 6 5 C4.35 4.67 2.7 4.34 1 4 C0.67 2.68 0.34 1.36 0 0 Z " fill="#FAFBC4" transform="translate(98,470)"/>
<path d="M0 0 C2.64752004 2.57784846 4.94432065 4.91648098 7 8 C5.1875 7.8125 5.1875 7.8125 3 7 C0 2.82142857 0 2.82142857 0 0 Z " fill="#FDF6AC" transform="translate(86,456)"/>
<path d="M0 0 C0 4.38968456 -2.12805101 5.76905739 -5 9 C-5.33 8.34 -5.66 7.68 -6 7 C-4.77065985 3.31197956 -3.06140622 2.27643027 0 0 Z " fill="#F2DE2C" transform="translate(503,446)"/>
<path d="M0 0 C1.65 0 3.3 0 5 0 C3.69593116 2.01920337 2.36176581 4.01924973 1 6 C0.67 6 0.34 6 0 6 C0 4.02 0 2.04 0 0 Z " fill="#FADC26" transform="translate(504,440)"/>
<path d="M0 0 C0.66 0 1.32 0 2 0 C1.71872579 1.48117801 1.42466268 2.95993249 1.125 4.4375 C0.96257812 5.26121094 0.80015625 6.08492188 0.6328125 6.93359375 C0.31957031 7.95646484 0.31957031 7.95646484 0 9 C-0.99 9.495 -0.99 9.495 -2 10 C-2 8.68 -2 7.36 -2 6 C-1.34 6 -0.68 6 0 6 C-0.2784375 4.7934375 -0.2784375 4.7934375 -0.5625 3.5625 C-0.706875 2.716875 -0.85125 1.87125 -1 1 C-0.67 0.67 -0.34 0.34 0 0 Z " fill="#FEFBD8" transform="translate(367,337)"/>
<path d="M0 0 C0.66 0 1.32 0 2 0 C1.49287967 3.71888239 0.88391785 6.73454239 -1 10 C-1.125 2.25 -1.125 2.25 0 0 Z " fill="#FEFACB" transform="translate(370,326)"/>
<path d="M0 0 C0.99 0.66 1.98 1.32 3 2 C2.34 3.32 1.68 4.64 1 6 C0.34 6 -0.32 6 -1 6 C-1.33 6.66 -1.66 7.32 -2 8 C-1.125 2.25 -1.125 2.25 0 0 Z " fill="#F8E12F" transform="translate(37,190)"/>
<path d="M0 0 C0 0.99 0 1.98 0 3 C-1.97746603 3.73080266 -3.98072489 4.39421747 -6 5 C-6.66 4.67 -7.32 4.34 -8 4 C-5.53721199 1.53721199 -3.29323018 1.00228745 0 0 Z " fill="#FAE65A" transform="translate(138,60)"/>
<path d="M0 0 C1.60080151 4.00200378 0.29279692 7.04556236 -1 11 C-1.33 11 -1.66 11 -2 11 C-2.25 3.375 -2.25 3.375 0 0 Z " fill="#FFFCEA" transform="translate(215,424)"/>
<path d="M0 0 C-3.28463659 2.18975773 -6.20696275 2.99806563 -10 4 C-10 3.34 -10 2.68 -10 2 C-6.5980513 -0.09350689 -3.94727588 -0.17942163 0 0 Z " fill="#F5DF42" transform="translate(204,271)"/>
<path d="M0 0 C0.33 0.66 0.66 1.32 1 2 C-1.48387097 8.74193548 -1.48387097 8.74193548 -4 10 C-3.43454163 6.04179141 -2.19097652 3.3340947 0 0 Z " fill="#FEF5A5" transform="translate(50,157)"/>
</svg>
